<svg xmlns="http://www.w3.org/2000/svg" viewBox="0 0 1000 500"><path fill="currentColor" d="M0 0h1000v500H0z"/><rect width="920" height="420" x="40" y="40" fill="currentColor" stroke="currentColor" filter="drop-shadow(0 4px 12px rgba(0,0,0,0.05))" rx="20"/><text x="80" y="100" fill="currentColor" font-family="-apple-system, BlinkMacSystemFont, 'Segoe UI', Roboto, sans-serif" font-size="32" font-weight="600">Running Campaigns</text><rect width="120" height="44" x="800" y="70" fill="currentColor" rx="12"/><text x="860" y="95" fill="currentColor" font-family="-apple-system, BlinkMacSystemFont, 'Segoe UI', Roboto, sans-serif" font-size="15" font-weight="500" text-anchor="middle">Cancel All Jobs</text><rect width="60" height="32" x="80" y="130" fill="currentColor" rx="16"/><text x="110" y="149" fill="currentColor" font-family="-apple-system, BlinkMacSystemFont, 'Segoe UI', Roboto, sans-serif" font-size="13" font-weight="500" text-anchor="middle">All</text><rect width="80" height="32" x="150" y="130" fill="currentColor" rx="16"/><text x="190" y="149" fill="currentColor" font-family="-apple-system, BlinkMacSystemFont, 'Segoe UI', Roboto, sans-serif" font-size="13" text-anchor="middle">Running</text><rect width="70" height="32" x="240" y="130" fill="currentColor" rx="16"/><text x="275" y="149" fill="currentColor" font-family="-apple-system, BlinkMacSystemFont, 'Segoe UI', Roboto, sans-serif" font-size="13" text-anchor="middle">Queued</text><rect width="90" height="32" x="320" y="130" fill="currentColor" rx="16"/><text x="365" y="149" fill="currentColor" font-family="-apple-system, BlinkMacSystemFont, 'Segoe UI', Roboto, sans-serif" font-size="13" text-anchor="middle">Completed</text><rect width="840" height="120" x="80" y="180" fill="currentColor" stroke="currentColor" rx="16"/><text x="100" y="210" fill="currentColor" font-family="-apple-system, BlinkMacSystemFont, 'Segoe UI', Roboto, sans-serif" font-size="20" font-weight="500">Summer Product Launch</text><text x="100" y="235" fill="currentColor" font-family="-apple-system, BlinkMacSystemFont, 'Segoe UI', Roboto, sans-serif" font-size="12">Run ID: run_123</text><rect width="80" height="28" x="820" y="190" fill="currentColor" rx="14"/><text x="860" y="207" fill="currentColor" font-family="-apple-system, BlinkMacSystemFont, 'Segoe UI', Roboto, sans-serif" font-size="12" font-weight="500" text-anchor="middle">Processing</text><text x="100" y="260" fill="currentColor" font-family="-apple-system, BlinkMacSystemFont, 'Segoe UI', Roboto, sans-serif" font-size="14">Generating video content...</text><text x="860" y="260" fill="currentColor" font-family="-apple-system, BlinkMacSystemFont, 'Segoe UI', Roboto, sans-serif" font-size="14">65%</text><rect width="800" height="8" x="100" y="270" fill="currentColor" rx="4"/><rect width="520" height="8" x="100" y="270" fill="currentColor" rx="4"/><rect width="840" height="100" x="80" y="320" fill="currentColor" stroke="currentColor" rx="16"/><text x="100" y="350" fill="currentColor" font-family="-apple-system, BlinkMacSystemFont, 'Segoe UI', Roboto, sans-serif" font-size="20" font-weight="500">Holiday Campaign</text><text x="100" y="375" fill="currentColor" font-family="-apple-system, BlinkMacSystemFont, 'Segoe UI', Roboto, sans-serif" font-size="12">Run ID: run_124</text><rect width="80" height="28" x="820" y="330" fill="currentColor" rx="14"/><text x="860" y="347" fill="currentColor" font-family="-apple-system, BlinkMacSystemFont, 'Segoe UI', Roboto, sans-serif" font-size="12" font-weight="500" text-anchor="middle">Completed</text></svg>